# Apple ModelIO OBJ File: textured-cube
mtllib textured-cube.mtl
g 
v -6.36629 4.73905 -2.33842
v -6.61629 3.87302 -2.77143
v -7.13745 4.37028 -3.46505
v -6.88745 5.23631 -3.03204
v -7.70347 5.18405 -2.45639
v -7.95347 4.31802 -2.8894
v -7.43231 3.82076 -2.19578
v -7.18231 4.68679 -1.76277
vn 1 0 0
vn -1 0 0
vn 0 1 0
vn 0 -1 0
vn 0 0 1
vn 0 0 -1
vt 0 1
vt 0 0
vt 1 0
vt 1 1
usemtl material_1
f 1/1/1 2/2/1 3/3/1 4/4/1 
f 5/1/2 6/2/2 7/3/2 8/4/2 
f 5/1/3 8/2/3 1/3/3 4/4/3 
f 7/1/4 6/2/4 3/3/4 2/4/4 
f 8/1/5 7/2/5 2/3/5 1/4/5 
f 4/1/6 3/2/6 6/3/6 5/4/6 
s off
